<?xml version="1.0" encoding="utf-8"?>
<!-- Generator: Adobe Illustrator 27.2.0, SVG Export Plug-In . SVG Version: 6.00 Build 0)  -->
<svg version="1.1" id="Layer_1" xmlns="http://www.w3.org/2000/svg" xmlns:xlink="http://www.w3.org/1999/xlink" x="0px" y="0px"
	 viewBox="0 0 1400 1000" style="enable-background:new 0 0 1400 1000;" xml:space="preserve">
<style type="text/css">
	.st0{fill:#FFFFFF;}
	.st1{fill:none;stroke:#CCCCCC;}
	.st2{font-family:'Arial-Black';}
	.st3{font-size:10.8684px;}
	.st4{enable-background:new    ;}
	.st5{font-family:'ArialMT';}
	.st6{font-size:15.2701px;}
	.st7{font-size:9.8428px;}
	.st8{font-size:11.9117px;}
	.st9{font-size:7.2794px;}
	.st10{font-size:8.8801px;}
	.st11{font-family:'Impact';}
	.st12{font-size:8.5468px;}
	.st13{font-size:8.9663px;}
	.st14{font-size:8.5162px;}
	.st15{font-size:10.2408px;}
	.st16{font-size:6.2295px;}
	.st17{fill:#E9C449;}
	.st18{fill:#A76D3A;}
	.st19{fill:#9B9B9B;}
	.st20{font-size:8.4415px;}
	.st21{font-size:8.7837px;}
	.st22{font-size:8.7248px;}
	.st23{font-family:'Arial-BoldMT';}
	.st24{font-size:11.6246px;}
	.st25{font-size:14.1645px;}
	.st26{font-size:9.4591px;}
	.st27{font-size:10.7031px;}
	.st28{font-size:11.1528px;}
	.st29{font-size:12.3108px;}
	.st30{font-size:11.3562px;}
	.st31{font-size:9.6624px;}
	.st32{font-size:9.5514px;}
	.st33{font-size:12.5459px;}
	.st34{font-size:11.7111px;}
	.st35{font-size:10.366px;}
	.st36{font-size:8.3161px;}
	.st37{font-size:8.09px;}
	.st38{font-size:6.7279px;}
	.st39{font-size:7.2803px;}
	.st40{font-size:10.341px;}
	.st41{font-size:7.9391px;}
	.st42{font-size:8.1036px;}
	.st43{font-size:9.6297px;}
	.st44{font-size:7.1999px;}
	.st45{font-size:6.0587px;}
	.st46{font-size:4.7294px;}
	.st47{font-size:8.098px;}
	.st48{font-size:6.5725px;}
	.st49{font-size:6.0139px;}
	.st50{font-size:4.8092px;}
	.st51{font-size:5.4576px;}
	.st52{font-size:5.9684px;}
	.st53{font-size:10.3344px;}
	.st54{font-size:10px;}
	.st55{font-size:12px;}
	.st56{font-size:5.6668px;}
</style>
<rect id="backgorund" x="-238.4" y="1298.8" class="st0" width="1400.2" height="995.7"/>
<g id="viz" transform="translate(20,20)">
	<g id="nodes">
		<g transform="translate(581,481)">
			<path id="p_1542" class="st1" d="M62.1,410.5c-220.4,0-399-184-399-411s178.6-411,399-411s399,184,399,411
				S282.5,410.5,62.1,410.5z"/>
		</g>
		<g id="United_States_of_America" transform="translate(465.77799914041157,482.7199180140104)">
			<path id="p_1063.3650097028979" class="st1" d="M75.8,86.1C16.6,86.1-31.4,39.4-31.4-18.4c0-57.7,48-104.5,107.2-104.5
				c0,0,0,0,0,0C135-122.9,183-76.1,183-18.4C183,39.3,135,86.1,75.8,86.1C75.8,86.1,75.8,86.1,75.8,86.1z"/>
			<text transform="matrix(0.7141 0 0 1 51.0472 -122.9391)" class="st2 st3">Precinct 34</text>
		</g>
		<g id="People_x27_s_Republic_of_China" transform="translate(689.6430749769214,482.7199180140104)">
			<path id="p_1276.561355857392" class="st1" d="M60.9,76.4C7.2,76.4-36.4,34-36.4-18.4s43.5-94.8,97.3-94.8s97.3,42.4,97.3,94.8
				S114.6,76.4,60.9,76.4z"/>
			<text transform="matrix(0.3404 0 0 1 23.7222 -115.3845)" class="st4"><tspan x="0" y="0" class="st5 st6">           </tspan><tspan x="46.7" y="0" class="st2 st6">Precinct 8</tspan></text>
		</g>
		<g id="ROC" transform="translate(587.6018534550286,657.3043301711027)">
			<path id="p_1338.1262209443664" class="st1" d="M67.7,50.7c-48.1,0-87-38-87-84.8s39-84.8,87-84.8s87,38,87,84.8
				S115.7,50.7,67.7,50.7z"/>
			<text transform="matrix(0.7729 0 0 1 42.3874 -122.9811)" class="st2 st7">Precinct 40</text>
		</g>
		<g id="Great_Britain" transform="translate(587.4185789410449,312.71483307301776)">
			<path id="p_989.507746592164" class="st1" d="M67.7,78.2c-46.1,0-83.4-36.4-83.4-81.3s37.3-81.3,83.4-81.3S151.1-48,151.1-3.1
				S113.8,78.2,67.7,78.2z"/>
			<text transform="matrix(0.8313 0 0 1 46.7264 -85.8198)" class="st2 st8">Precinct 24</text>
		</g>
		<g id="Japan" transform="translate(409.62169631572175,285.12774723628155)">
			<path id="p_780.4998581531313" class="st1" d="M79.5,77.4c-44.2,0-80-34.9-80-78s35.8-78,80-78c0,0,0,0,0,0c44.2,0,80,34.9,80,78
				C159.6,42.5,123.8,77.4,79.5,77.4C79.5,77.4,79.5,77.4,79.5,77.4z"/>
			<text transform="matrix(1.0258 0 0 1 31.161 -79.0809)" class="st2 st9">Precinct 10</text>
		</g>
		<g id="Australia" transform="translate(410.75386996319696,674.2821067737482)">
			<path id="p_1164.6773844096133" class="st1" d="M79.5,36.8C38.4,36.8,5.1,4.4,5.1-35.6c0-40,33.3-72.5,74.3-72.5c0,0,0,0,0,0
				c41.1,0,74.3,32.4,74.3,72.5C153.8,4.4,120.5,36.8,79.5,36.8C79.5,36.8,79.5,36.8,79.5,36.8z"/>
			<text transform="matrix(0.9123 0 0 1 43.2701 -110.3788)" class="st2 st10">Precinct 6</text>
		</g>
		<g id="Italy" transform="translate(754.006952053179,313.1088341770146)">
			<path id="p_1139.5306702714868" class="st1" d="M56.6,62.8C19.3,62.8-11,33.3-11-3.1C-11-39.5,19.2-69,56.6-69c0,0,0,0,0,0
				c37.3,0,67.6,29.5,67.6,65.9C124.2,33.3,93.9,62.8,56.6,62.8C56.6,62.8,56.6,62.8,56.6,62.8z"/>
			<text transform="matrix(1.0258 0 0 1 28.0731 -70.1909)" class="st2 st9">Precinct 10</text>
		</g>
		<g id="Germany" transform="translate(755.3117574227824,649.1185313452827)">
			<path id="p_1474.3201876094408" class="st1" d="M56.5,30.2c-36,0-65.2-28.5-65.2-63.6S20.5-97,56.5-97s65.2,28.5,65.2,63.6
				S92.5,30.2,56.5,30.2z"/>
			<text transform="matrix(1.0258 0 0 1 37.0916 -98.1351)" class="st2 st9">Precinct 23</text>
		</g>
		<g id="Netherlands" transform="translate(297.0702223268702,398.2329988517197)">
			<path id="p_764.3170675327673" class="st1" d="M87,52c-35.6,0-64.4-28.1-64.4-62.8c0-34.7,28.8-62.8,64.4-62.8c0,0,0,0,0,0
				c35.6,0,64.4,28.1,64.4,62.8S122.6,52,87,52C87,52,87,52,87,52z"/>
			<text transform="matrix(1.0258 0 0 1 66.8946 -73.5763)" class="st2 st9">Precinct 26</text>
		</g>
		<g id="France" transform="translate(302.68240885656724,570.3645573845757)">
			<path id="p_938.5335799504487" class="st1" d="M86.7,33.3c-33.8,0-61.1-26.7-61.1-59.6s27.4-59.6,61.1-59.6s61.1,26.7,61.1,59.6
				S120.4,33.3,86.7,33.3z"/>
			<text transform="matrix(1.0258 0 0 1 66.3191 -88.847)" class="st11 st9">Precinct 11</text>
		</g>
		<g id="Canada" transform="translate(842.2270392385403,415.32471178688706)">
			<path id="p_1315.3589833998165" class="st1" d="M50.7,40.3c-29.8,0-54-23.5-54-52.6s24.2-52.6,54-52.6s54,23.5,54,52.6
				S80.5,40.3,50.7,40.3z"/>
			<text transform="matrix(0.7457 0 0 1 23.4399 -67.2139)" class="st2 st12">Precinct 27</text>
		</g>
		<g id="New_Zealand" transform="translate(837.0732483421325,550.6242537968404)">
			<path id="p_1441.016045540625" class="st1" d="M51.1,24C23.6,24,1.3,2.3,1.3-24.5S23.6-73,51.1-73s49.8,21.7,49.8,48.5
				S78.5,24,51.1,24z"/>
			<text transform="matrix(1.0258 0 0 1 29.0547 -73.0217)" class="st2 st9">Precinct 47</text>
		</g>
		<g id="Republic_of_Korea" transform="translate(513.2580370358618,184.74528277359474)">
			<path id="p_751.73471217595" class="st1" d="M72.6,57.3c-27.7,0-50.2-21.9-50.2-48.9s22.4-48.9,50.1-48.9c0,0,0,0,0,0
				c27.7,0,50.2,21.9,50.2,48.9C122.8,35.4,100.3,57.3,72.6,57.3C72.6,57.3,72.6,57.3,72.6,57.3z"/>
			<text transform="matrix(1.0258 0 0 1 47.9426 -41.613)" class="st2 st9">Precinct 34</text>
		</g>
		<g id="Hungary" transform="translate(685.0047138077502,203.67865105100606)">
			<path id="p_940.8376118850751" class="st1" d="M61.2,54.2C34.3,54.2,12.5,33,12.5,6.7s21.8-47.5,48.7-47.5s48.7,21.2,48.7,47.5
				S88.1,54.2,61.2,54.2z"/>
			<text transform="matrix(1.0258 0 0 1 47.0715 -40.7109)" class="st2 st9">Precinct 29</text>
		</g>
		<g id="Ukraine" transform="translate(696.7243214339727,765.7226063003818)">
			<path id="p_1518.2526112639878" class="st1" d="M60.4,6.9C31.6,6.9,8.3-15.8,8.3-43.9s23.3-50.8,52.1-50.8s52.1,22.7,52.1,50.8
				S89.2,6.9,60.4,6.9z"/>
			<text transform="matrix(1.0258 0 0 1 40.1907 -94.6591)" class="st2 st9">Precinct 67</text>
		</g>
		<g id="Spain" transform="translate(212.65033279891577,489.6564929493797)">
			<path id="p_752.9319905181256" class="st1" d="M92.6,27.1C66.6,27.1,45.4,6.4,45.4-19s21.2-46.1,47.3-46.1s47.3,20.6,47.3,46.1
				S118.7,27.1,92.6,27.1z"/>
			<text transform="matrix(1.0258 0 0 1 74.7276 -65.2278)" class="st2 st9">Precinct 12</text>
		</g>
		<g id="Poland" transform="translate(606.33772464198,137.472846639228)">
			<path id="p_789.675494539188" class="st1" d="M66.4,54.4c-23.6,0-42.8-18.7-42.8-41.7S42.8-29,66.4-29c0,0,0,0,0,0
				c23.6,0,42.8,18.7,42.8,41.7S90.1,54.4,66.4,54.4C66.4,54.4,66.4,54.4,66.4,54.4z"/>
			<text transform="matrix(0.8188 0 0 1 37.2477 -29.0305)" class="st2 st13">Precinct 26 </text>
		</g>
		<g id="Turkey" transform="translate(598.1610920098453,801.2095729949693)">
			<path id="p_1443.5223894559826" class="st1" d="M67-6.9c-22.8,0-41.2-18-41.2-40.2S44.2-87.3,67-87.3s41.2,18,41.2,40.2
				S89.7-6.9,67-6.9z"/>
			<text transform="matrix(1.0258 0 0 1 43.8287 -87.483)" class="st2 st9">Precinct 61</text>
		</g>
		<g id="Denmark" transform="translate(277.5360224845686,284.54868144174276)">
			<path id="p_603.6216120457091" class="st1" d="M88.3,37.3c-21.4,0-38.8-16.9-38.8-37.8c0-20.9,17.4-37.8,38.8-37.8c0,0,0,0,0,0
				c21.4,0,38.8,16.9,38.8,37.8S109.8,37.3,88.3,37.3C88.3,37.3,88.3,37.3,88.3,37.3z"/>
			<text transform="matrix(1.0258 0 0 1 73.1818 -38.3338)" class="st5 st9">Denmark</text>
		</g>
		<g id="Kenya" transform="translate(782.165249119686,198.99784367220508)">
			<path id="p_1021.4824466323847" class="st1" d="M54.7,43.9c-20.8,0-37.6-16.4-37.6-36.7s16.8-36.7,37.6-36.7c0,0,0,0,0,0
				c20.8,0,37.6,16.4,37.6,36.7C92.3,27.4,75.5,43.9,54.7,43.9C54.7,43.9,54.7,43.9,54.7,43.9z"/>
			<text transform="matrix(1.0258 0 0 1 44.1248 -29.5198)" class="st5 st9">Kenya</text>
		</g>
		<g id="Jamaica" transform="translate(796.9427626128648,756.0682055680172)">
			<path id="p_1593.0880529867372" class="st1" d="M53.9-6.5c-20.7,0-37.5-16.1-37.5-35.9s16.8-35.9,37.5-35.9s37.5,16.1,37.5,35.9
				S74.6-6.5,53.9-6.5z"/>
			<text transform="matrix(1.0258 0 0 1 39.8239 -79.4783)" class="st2 st9">Precinct 30 </text>
		</g>
		<g id="Sweden" transform="translate(402.24806972536317,800.0049744107923)">
			<path id="p_1243.8222858002457" class="st1" d="M72.9,4.8c-25.4,0-46-19.8-46-44.3s20.6-44.3,46-44.3s46,19.8,46,44.3
				S98.2,4.8,72.9,4.8z"/>
			<text transform="matrix(1.0386 0 0 1 46.2773 -83.6642)" class="st2 st14">Precinct 71</text>
		</g>
		<g id="Norway" transform="translate(421.8462743382562,158.62863607516312)">
			<path id="p_617.013291197911" class="st1" d="M78.7,44.1c-18.8,0-34.1-14.9-34.1-33.2s15.3-33.2,34.1-33.3c0,0,0,0,0,0
				c18.8,0,34.1,14.9,34.1,33.2S97.6,44,78.7,44.1C78.7,44.1,78.7,44.1,78.7,44.1z"/>
			<text transform="matrix(1.0258 0 0 1 50.9115 -21.9294)" class="st2 st9">Precinct 46</text>
		</g>
		<g id="Serbia" transform="translate(539.7574699507184,864.5461332427532)">
			<path id="p_1441.5062073517902" class="st1" d="M33.5-79c-28.8,0-52.1-21.4-52.1-47.8s23.3-47.8,52.1-47.8s52.1,21.4,52.1,47.8
				S62.3-79,33.5-79z"/>
			<text transform="matrix(0.6548 0 0 1 11.1713 -178.427)" class="st2 st15">Precinct 25</text>
		</g>
		<g id="Islamic_Republic_of_Iran" transform="translate(662.4852121661784,854.6153949501163)">
			<path id="p_1551.7541320334838" class="st1" d="M62.7-20.4c-17.9,0-32.3-14.1-32.4-31.5c0-17.4,14.5-31.5,32.3-31.5c0,0,0,0,0,0
				C80.5-83.4,95-69.3,95-51.9S80.6-20.4,62.7-20.4C62.7-20.4,62.7-20.4,62.7-20.4z"/>
			<text transform="matrix(1.0258 0 0 1 39.6847 -83.5383)" class="st2 st9">Precinct 67 </text>
		</g>
		<g id="Indonesia" transform="translate(535.2236783742076,98.57970866252163)">
			<path id="p_664.1936628206104" class="st1" d="M71.2,43.9c-15.7,0-28.4-12.4-28.4-27.7s12.7-27.7,28.4-27.7S99.5,0.9,99.5,16.2
				S86.8,43.9,71.2,43.9z"/>
			<text transform="matrix(1.0258 0 0 1 54.9692 -11.4406)" class="st5 st9">Indonesia</text>
		</g>
		<g id="Uzbekistan" transform="translate(766.0419164220955,824.7622008512674)">
			<path id="p_1621.2515601213076" class="st1" d="M55.8-21.5c-15.7,0-28.4-12.4-28.4-27.7c0-15.3,12.7-27.7,28.4-27.7c0,0,0,0,0,0
				c15.7,0,28.4,12.4,28.4,27.7S71.5-21.5,55.8-21.5C55.8-21.5,55.8-21.5,55.8-21.5z"/>
			<text transform="matrix(1.0258 0 0 1 28.4844 -78.1499)" class="st2 st9">Precinct 74</text>
		</g>
		<g id="Portugal" transform="translate(726.9677527342052,874.545098299192)">
			<path id="p_1629.5518616365614" class="st1" d="M58.4-28.2c-14.5,0-26.2-11.4-26.2-25.5s11.7-25.5,26.2-25.5c0,0,0,0,0,0
				c14.5,0,26.2,11.4,26.2,25.5C84.6-39.6,72.9-28.2,58.4-28.2C58.4-28.2,58.4-28.2,58.4-28.2z"/>
			<text transform="matrix(1.0738 0 0 1 30.6982 -78.5939)" class="st2 st16">Precinct 71</text>
		</g>
		<g id="Gold_Medal" transform="translate(519.5431928386556,457.46884033802456)">
			<path id="p_1027.6799011196456" class="st17" d="M74.8,53.6C48.7,53.6,27.5,33,27.5,7.5s21.2-46.1,47.3-46.1s47.3,20.6,47.3,46.1
				S101,53.6,74.8,53.6z"/>
		</g>
		<g id="Bronze_Medal" transform="translate(466.78323485953666,545.5624147050354)">
			<path id="p_1059.5625855822852" class="st18" d="M22.9-47.5c-24.3,0-44.1-19.2-44.1-43c0-23.7,19.7-43,44.1-43c0,0,0,0,0,0
				c24.3,0,44.1,19.2,44.1,43S47.2-47.5,22.9-47.5C22.9-47.5,22.9-47.5,22.9-47.5z"/>
		</g>
		
			<g id="Gold_Medal_00000005963552399550730120000007882359136025777548_" transform="translate(641.5069899078009,475.1294342388884)">
			<path id="p_1167.3042920896546" class="st17" d="M64.1,28.4C38,28.4,16.8,7.8,16.8-17.7S38-63.8,64.1-63.8s47.3,20.6,47.3,46.1
				S90.2,28.4,64.1,28.4z"/>
		</g>
		
			<g id="Bronze_Medal_00000043432603970256705040000011739971853232452482_" transform="translate(696.3802879555057,546.893963290389)">
			<path id="p_1278.146269569271" class="st18" d="M146.8-94.2c7,23.9-6.6,49-30.3,56s-48.7-6.6-55.7-30.5c0,0,0,0,0,0
				c-7-23.9,6.6-49,30.3-56C114.8-131.8,139.8-118.1,146.8-94.2C146.8-94.2,146.8-94.2,146.8-94.2z"/>
		</g>
		
			<g id="Bronze_Medal_00000168804686216635109160000005080176786559725714_" transform="translate(632.8583232351713,638.5160788195723)">
			<path id="p_1310.7933246291984" class="st18" d="M64.7,3.4c-20.3,0-36.8-16.1-36.8-35.9s16.5-35.9,36.8-35.9s36.8,16.1,36.8,35.9
				S85,3.4,64.7,3.4z"/>
		</g>
		
			<g id="Gold_Medal_00000160191070196536237960000008100729476258676638_" transform="translate(592.521808763708,708.7316066162815)">
			<path id="p_1338.0117502163214" class="st17" d="M29.5-39.5c-21.9,0-39.7-17.4-39.7-38.8s17.8-38.8,39.7-38.8
				s39.7,17.4,39.7,38.8S51.4-39.5,29.5-39.5z"/>
		</g>
		
			<g id="Bronze_Medal_00000019657953119152366060000011276501359044291712_" transform="translate(547.4178496773028,289.9554633927848)">
			<path id="p_875.9257798904335" class="st18" d="M70.3,34.1c-19.9,0-36-15.7-36-35.1s16.1-35.1,36-35.1s36,15.7,36,35.1
				S90.2,34.1,70.3,34.1z"/>
		</g>
		
			<g id="Gold_Medal_00000083782723661289630840000007809879594947876267_" transform="translate(628.4360216498774,289.9554633927848)">
			<path id="p_956.0575697733173" class="st17" d="M65,33.2C45.5,33.2,29.8,17.9,29.8-1S45.5-35.3,65-35.3S100.1-20,100.1-1
				S84.4,33.2,65,33.2z"/>
		</g>
		
			<g id="Gold_Medal_00000152237303521888416280000009499482569587006347_" transform="translate(373.5438981556132,272.44695864497737)">
			<path id="p_688.7001823972194" class="st17" d="M81.5,43.8c-23.6,0-42.7-18.4-42.7-41.1s19.1-41.1,42.7-41.1s42.7,18.4,42.7,41.1
				S105.1,43.8,81.5,43.8z"/>
		</g>
		
			<g id="Bronze_Medal_00000000217225071499045080000002968599783507361432_" transform="translate(454.94235439377746,272.44695864497737)">
			<path id="p_761.2788232587168" class="st18" d="M78.4,38.2C59.9,38.2,44.9,22.9,44.9,4s15-34.2,33.5-34.2c0,0,0,0,0,0
				c18.5,0,33.5,15.3,33.5,34.2C111.9,22.8,96.9,38.2,78.4,38.2C78.4,38.2,78.4,38.2,78.4,38.2z"/>
		</g>
		
			<g id="Bronze_Medal_00000136389543743092652860000005543815014762581130_" transform="translate(374.46454953244825,674.2821067737482)">
			<path id="p_1087.2991231265423" class="st18" d="M81.9-0.6c-19.9,0-36-15.7-36-35.1s16.1-35.1,36-35.1s36,15.7,36,35.1
				S101.7-0.6,81.9-0.6z"/>
		</g>
		
			<g id="Gold_Medal_00000144311614141767235450000011683766994666156442_" transform="translate(451.70614699432974,674.2821067737482)">
			<path id="p_1159.8777639880398" class="st17" d="M76.7-4.8c-17.5,0-31.6-13.8-31.6-30.8s14.2-30.8,31.6-30.8c0,0,0,0,0,0
				c17.5,0,31.6,13.8,31.6,30.8C108.4-18.6,94.2-4.8,76.7-4.8C76.7-4.8,76.7-4.8,76.7-4.8z"/>
		</g>
		
			<g id="Bronze_Medal_00000177476881870890751970000016755766834670596274_" transform="translate(726.0079590690747,300.1393914049009)">
			<path id="p_1062.9056853103075" class="st18" d="M58.3,40.8c-20.9,0-37.9-17.1-37.9-38.1s17-38.1,37.9-38.1S96.2-18.3,96.2,2.7
				S79.2,40.8,58.3,40.8z"/>
		</g>
		
			<g id="Gold_Medal_00000088823439504151031260000001954938789172178325_" transform="translate(793.5579821548761,300.1393914049009)">
			<path id="p_1119.6894413876728" class="st17" d="M49.9,54.8c-14.1,0-25.5-11.3-25.5-25.2c0-13.9,11.4-25.2,25.5-25.2c0,0,0,0,0,0
				c14.1,0,25.5,11.3,25.5,25.2C75.5,43.5,64,54.8,49.9,54.8C49.9,54.8,49.9,54.8,49.9,54.8z"/>
		</g>
		
			<g id="Bronze_Medal_00000017486960837198002200000003423022178549785507_" transform="translate(725.8719858720577,636.0436312739652)">
			<path id="p_1394.7932713195175" class="st18" d="M58.5-2.3c-16.9,0-30.7-13.4-30.7-29.9s13.7-29.9,30.7-29.9s30.7,13.4,30.7,29.9
				S75.4-2.3,58.5-2.3z"/>
		</g>
		
			<g id="Gold_Medal_00000080195476327139879180000017888803617002797223_" transform="translate(763.6052636405065,687.3270098036775)">
			<path id="p_1476.9243412720798" class="st17" d="M82.2-43.1c-16,0-29-13-29-29c0-16,13-29,29-29c0,0,0,0,0,0c16,0,29,13,29,29
				C111.2-56.1,98.2-43.1,82.2-43.1C82.2-43.1,82.2-43.1,82.2-43.1z"/>
		</g>
		
			<g id="Bronze_Medal_00000151531398025079199620000011488735730247210117_" transform="translate(266.28971693237327,385.11309581649357)">
			<path id="p_682.1570421483807" class="st18" d="M89.1,18.4c-15.9,0-28.7-12.5-28.7-28s12.9-28,28.7-28s28.7,12.5,28.7,28
				S104.9,18.4,89.1,18.4z"/>
		</g>
		
			<g id="Silver_Medal_00000181089537095263357180000012044978425613482886_" transform="translate(330.3164504845465,385.11309581649357)">
			<path id="p_743.902430032126" class="st19" d="M84.8,16.3c-14.7,0-26.6-11.6-26.6-25.9s11.9-25.9,26.6-25.9s26.6,11.6,26.6,25.9
				S99.5,16.3,84.8,16.3z"/>
		</g>
		
			<g id="Gold_Medal_00000071559249499665261330000002854163361064183450_" transform="translate(300.45539159554295,436.30495702573165)">
			<path id="p_762.7524164491706" class="st17" d="M86.8,9.4c-13.4,0-24.3-10.6-24.3-23.6s10.9-23.7,24.3-23.7c0,0,0,0,0,0
				c13.4,0,24.3,10.6,24.3,23.6S100.2,9.4,86.8,9.4C86.8,9.4,86.8,9.4,86.8,9.4z"/>
		</g>
		
			<g id="Bronze_Medal_00000109027380871760962530000018312146591966551487_" transform="translate(333.60623821590735,557.6746738530697)">
			<path id="p_918.5416227891131" class="st18" d="M84.6-0.3c-14.1,0-25.4-11.1-25.4-24.8s11.4-24.8,25.4-24.8c0,0,0,0,0,0
				c14.1,0,25.4,11.1,25.4,24.8C110-11.4,98.7-0.3,84.6-0.3C84.6-0.3,84.6-0.3,84.6-0.3z"/>
		</g>
		
			<g id="Gold_Medal_00000134938442511438801280000017699944804212950915_" transform="translate(304.4875526893519,606.3480601852519)">
			<path id="p_935.4938535047248" class="st17" d="M56.8-39.5c-16.8,0-30.4-13.1-30.4-29.3S40-98.1,56.8-98.1c0,0,0,0,0,0
				c16.8,0,30.4,13.1,30.4,29.3C87.2-52.6,73.6-39.5,56.8-39.5C56.8-39.5,56.8-39.5,56.8-39.5z"/>
		</g>
		
			<g id="Bronze_Medal_00000001641228016137249020000010628921844455805827_" transform="translate(818.2447327470403,405.95711345897456)">
			<path id="p_1251.462556926151" class="st18" d="M53.2,17.7c-16.3,0-29.4-12.8-29.4-28.6s13.2-28.6,29.4-28.6c0,0,0,0,0,0
				c16.3,0,29.4,12.8,29.4,28.6S69.4,17.6,53.2,17.7C53.2,17.7,53.2,17.7,53.2,17.7z"/>
		</g>
		
			<g id="Gold_Medal_00000036947056573249962980000017656105384789131436_" transform="translate(872.0515880473129,405.95711345897456)">
			<path id="p_1299.7552256648505" class="st17" d="M51.2,22.8c-12.6,0-22.8-10.3-22.8-22.9c0-12.7,10.2-23,22.8-23c0,0,0,0,0,0
				C63.8-23.1,74-12.8,74-0.1C74,12.5,63.8,22.8,51.2,22.8C51.2,22.8,51.2,22.8,51.2,22.8z"/>
		</g>
		
			<g id="Gold_Medal_00000135655097356391839870000005241541864224788647_" transform="translate(812.9269139727828,539.06069572928)">
			<path id="p_1373.7341338606257" class="st17" d="M52.7-3.7c-11.2,0-20.3-8.9-20.3-19.8s9.1-19.8,20.3-19.8c0,0,0,0,0,0
				c11.2,0,20.3,8.9,20.3,19.8C73-12.5,63.9-3.7,52.7-3.7C52.7-3.7,52.7-3.7,52.7-3.7z"/>
		</g>
		
			<g id="Bronze_Medal_00000178203834149969393040000013413697018644499598_" transform="translate(861.2195827114822,539.06069572928)">
			<path id="p_1422.026802599325" class="st18" d="M49.4-3.7c-11.2,0-20.3-8.9-20.3-19.8c0-10.9,9.1-19.8,20.3-19.8c0,0,0,0,0,0
				c11.2,0,20.3,8.9,20.3,19.8S60.7-3.7,49.4-3.7C49.4-3.7,49.4-3.7,49.4-3.7z"/>
		</g>
		
			<g id="Silver_Medal_00000021836744498066980010000008581382588296135855_" transform="translate(837.0732483421325,579.0098076107319)">
			<path id="p_1436.2164251190513" class="st19" d="M51.1-8.7c-10.4,0-18.8-8.2-18.8-18.3c0-10.1,8.4-18.3,18.8-18.3c0,0,0,0,0,0
				c10.4,0,18.8,8.2,18.8,18.3S61.4-8.7,51.1-8.7C51.1-8.7,51.1-8.7,51.1-8.7z"/>
		</g>
		
			<g id="Bronze_Medal_00000013912697910905307150000005167516059008383918_" transform="translate(490.7716265006204,180.2075117109268)">
			<path id="p_696.9712060394432" class="st18" d="M74.1,32.5c-13.4,0-24.3-10.6-24.3-23.6c0-13.1,10.9-23.7,24.3-23.7c0,0,0,0,0,0
				c13.4,0,24.3,10.6,24.3,23.6C98.4,21.9,87.5,32.5,74.1,32.5C74.1,32.5,74.1,32.5,74.1,32.5z"/>
		</g>
		
			<g id="Gold_Medal_00000090267402637214223380000010410441011012890268_" transform="translate(541.6966839162769,180.2075117109268)">
			<path id="p_742.0375647933906" class="st17" d="M71,37.8c-12.4,0-22.5-10.1-22.5-22.5C48.5,2.9,58.6-7.1,71-7.1c0,0,0,0,0,0
				c12.4,0,22.5,10.1,22.5,22.5C93.5,27.7,83.4,37.8,71,37.8C71,37.8,71,37.8,71,37.8z"/>
		</g>
		
			<g id="Gold_Medal_00000183942586401403441210000010487397440311693708_" transform="translate(709.2573116554905,191.3170834250109)">
			<path id="p_920.7077642466883" class="st17" d="M62.4,44.6c-11.7,0-21.3-9.6-21.3-21.5c0-11.9,9.5-21.5,21.3-21.5c0,0,0,0,0,0
				c11.7,0,21.3,9.6,21.3,21.5C83.7,35,74.2,44.6,62.4,44.6C62.4,44.6,62.4,44.6,62.4,44.6z"/>
		</g>
		
			<g id="Bronze_Medal_00000100371980932459582220000010509393131723034022_" transform="translate(687.5028359943184,230.78503852844847)">
			<path id="p_938.4212436889537" class="st18" d="M37.2-3.8c-13.4,0-24.3-10.5-24.3-23.5c0-13,10.9-23.5,24.3-23.5c0,0,0,0,0,0
				c13.4,0,24.3,10.5,24.3,23.5S50.6-3.8,37.2-3.8C37.2-3.8,37.2-3.8,37.2-3.8z"/>
		</g>
		
			<g id="Bronze_Medal_00000163039450774047444120000013941319509002551472_" transform="translate(674.191142056999,765.7226063003818)">
			<path id="p_1468.3866320884667" class="st18" d="M61.9-18c-14.7,0-26.6-11.6-26.6-25.9s11.9-25.9,26.6-25.9s26.6,11.6,26.6,25.9
				S76.6-18,61.9-18z"/>
		</g>
		
			<g id="Gold_Medal_00000146487049527419124370000011927108320105222580_" transform="translate(706.7220650598781,791.4775724753767)">
			<path id="p_1506.4190510786284" class="st17" d="M77.3-60.9c-10.8,0-19.6-8.7-19.6-19.5s8.8-19.5,19.6-19.5s19.6,8.7,19.6,19.5
				S88.1-60.9,77.3-60.9z"/>
		</g>
		
			<g id="Bronze_Medal_00000134958309082380058760000010967755352664566203_" transform="translate(238.30102239278207,488.1970447847391)">
			<path id="p_746.6314363437081" class="st18" d="M90.9-0.6c-10.4,0-18.8-8.2-18.8-18.3c0-10.1,8.4-18.3,18.8-18.3c0,0,0,0,0,0
				c10.4,0,18.8,8.2,18.8,18.3S101.3-0.6,90.9-0.6C90.9-0.6,90.9-0.6,90.9-0.6z"/>
		</g>
		
			<g id="Gold_Medal_00000102526095782818177450000009716939904798158222_" transform="translate(216.84328738097648,520.9660845713756)">
			<path id="p_752.045813817895" class="st17" d="M68.2-36.1c-11.8,0-21.4-9.5-21.4-21.2s9.6-21.2,21.4-21.2s21.4,9.5,21.4,21.2
				S80-36.1,68.2-36.1z"/>
		</g>
		
			<g id="Bronze_Medal_00000095302544218174750050000011884071126011681439_" transform="translate(627.1167022709327,128.3681869031244)">
			<path id="p_773.864056592223" class="st18" d="M67.7,38.3c-11,0-19.9-9.3-19.9-20.7S56.8-3.2,67.7-3.2s19.9,9.3,19.9,20.7
				S78.7,38.3,67.7,38.3z"/>
		</g>
		
			<g id="Gold_Medal_00000049930715378913957000000005749345993490707591_" transform="translate(606.33772464198,162.09932238888706)">
			<path id="p_784.8758741176143" class="st17" d="M46.8,5.1c-12,0-21.7-9.8-21.7-21.9s9.7-21.9,21.7-21.9s21.7,9.8,21.7,21.9
				S58.8,5.1,46.8,5.1z"/>
		</g>
		
			<g id="Bronze_Medal_00000066493552974335816920000010756987335830166952_" transform="translate(584.3498646361523,796.1936363890569)">
			<path id="p_1405.2017416553304" class="st18" d="M67.9-24.2c-12.7,0-23-10-23-22.4c0-12.4,10.3-22.4,23-22.4c0,0,0,0,0,0
				c12.7,0,23,10,23,22.4C90.9-34.2,80.6-24.2,67.9-24.2C67.9-24.2,67.9-24.2,67.9-24.2z"/>
		</g>
		
			<g id="Gold_Medal_00000089555657037730495500000001749596125438505657_" transform="translate(625.431731795639,796.1936363890569)">
			<path id="p_1433.2493742924883" class="st17" d="M65.4-36c-7.4,0-13.5-6-13.5-13.5S57.9-63,65.3-63c0,0,0,0,0,0
				c7.4,0,13.5,6,13.5,13.5S72.8-36,65.4-36C65.4-36,65.4-36,65.4-36z"/>
		</g>
		
			<g id="Silver_Medal_00000018949616017327007630000005586808618896539023_" transform="translate(258.69738518703446,276.99002759655366)">
			<path id="p_552.1262398703354" class="st19" d="M89.6,15.1c-8.5,0-15.3-6.7-15.3-15s6.9-15,15.3-15s15.3,6.7,15.3,15
				S98.1,15.1,89.6,15.1z"/>
		</g>
		
			<g id="Bronze_Medal_00000130631185076306397900000011907589453783361470_" transform="translate(296.37465978210275,276.99002759655366)">
			<path id="p_589.8035144654037" class="st18" d="M87.1,15.1c-8.5,0-15.3-6.7-15.3-15s6.9-15,15.3-15s15.3,6.7,15.3,15
				S95.5,15.1,87.1,15.1z"/>
		</g>
		
			<g id="Gold_Medal_00000137854217041910355800000004546273681521306268_" transform="translate(277.5360224845686,307.04952727402394)">
			<path id="p_598.8219916241355" class="st17" d="M88.3,10.4C81,10.4,75,4.6,75-2.6s5.9-13,13.3-13s13.3,5.8,13.3,13
				S95.7,10.4,88.3,10.4z"/>
		</g>
		
			<g id="Gold_Medal_00000155113134819535162590000009573448938711358343_" transform="translate(763.3266118221519,195.96688157592263)">
			<path id="p_975.7323204848219" class="st17" d="M56,22.4c-8.5,0-15.3-6.7-15.3-15s6.9-15,15.3-15s15.3,6.7,15.3,15
				S64.4,22.4,56,22.4z"/>
		</g>
		
			<g id="Silver_Medal_00000009560707929517368700000018372195391554152865_" transform="translate(801.0038864172201,195.96688157592263)">
			<path id="p_1013.4095950798901" class="st19" d="M53.5,22.4c-8.5,0-15.3-6.7-15.3-15s6.9-15,15.3-15s15.3,6.7,15.3,15
				S61.9,22.4,53.5,22.4z"/>
		</g>
		
			<g id="Bronze_Medal_00000051341109850882196310000011250946273493759122_" transform="translate(782.165249119686,222.8935709833329)">
			<path id="p_1016.6828262108111" class="st18" d="M54.7,15.6c-6,0-10.9-4.7-10.9-10.6S48.7-5.6,54.7-5.6c0,0,0,0,0,0
				c6,0,10.9,4.7,10.9,10.6S60.7,15.6,54.7,15.6C54.7,15.6,54.7,15.6,54.7,15.6z"/>
		</g>
		
			<g id="Gold_Medal_00000133523118632536152080000016252329459451295872_" transform="translate(778.1041253153307,756.0682055680172)">
			<path id="p_1550.6111579700953" class="st17" d="M55-28.1c-8.5,0-15.3-6.7-15.3-15S46.5-58,55-58s15.3,6.7,15.3,15
				S63.5-28.1,55-28.1z"/>
		</g>
		
			<g id="Bronze_Medal_00000117639635711721688770000013883225869392336790_" transform="translate(815.7813999103989,756.0682055680172)">
			<path id="p_1588.2884325651635" class="st18" d="M52.5-28.1c-8.5,0-15.3-6.7-15.3-15S44-58,52.5-58s15.3,6.7,15.3,15
				S60.9-28.1,52.5-28.1z"/>
		</g>
		
			<g id="Silver_Medal_00000053541407286779531380000018420792840089291908_" transform="translate(385.61181764903347,800.0049744107923)">
			<path id="p_1205.7501612260128" class="st18" d="M69.2-15.3c-10.4,0-18.8-8.2-18.8-18.3c0-10.1,8.4-18.3,18.8-18.3c0,0,0,0,0,0
				c10.4,0,18.8,8.2,18.8,18.3C88-23.5,79.6-15.3,69.2-15.3C69.2-15.3,69.2-15.3,69.2-15.3z"/>
		</g>
		
			<g id="Gold_Medal_00000078759848040188843500000010969745813460666037_" transform="translate(424.7812491023369,800.0049744107923)">
			<path id="p_1239.0226653786722" class="st17" d="M78.5-34c-7.3,0-13.3-5.8-13.3-13s5.9-13,13.3-13c7.3,0,13.3,5.8,13.3,13
				S85.9-34,78.5-34z"/>
		</g>
		
			<g id="Bronze_Medal_00000064335358097142138090000017393016695505850514_" transform="translate(408.506286578173,809.8790446068178)">
			<path id="p_1218.3853311849907" class="st18" d="M79.6-47.9"/>
		</g>
		
			<g id="Gold_Medal_00000102513459179297950220000006037098098812962983_" transform="translate(408.00942746422294,152.09949931447014)">
			<path id="p_576.5477538654404" class="st17" d="M76.4,28.2c-8.5,0-15.3-6.7-15.3-15s6.9-15,15.3-15s15.3,6.7,15.3,15
				S84.9,28.2,76.4,28.2z"/>
		</g>
		
			<g id="Bronze_Medal_00000155854934563466993220000011456434798595771549_" transform="translate(428.9027550719961,177.46502156703662)">
			<path id="p_617.9917827468249" class="st18" d="M88.9,8.8c-8.7,0-15.8-7.2-15.8-16.1s7.1-16.1,15.8-16.1c0,0,0,0,0,0
				c8.7,0,15.8,7.2,15.8,16.1S97.7,8.8,88.9,8.8C88.9,8.8,88.9,8.8,88.9,8.8z"/>
		</g>
		
			<g id="Bronze_Medal_00000062879048473631534980000015547685375894377640_" transform="translate(525.7336536321394,864.5461332427532)">
			<path id="p_1408.6589542930585" class="st18" d="M26.3-111.5c-14.1,0-25.5-11.5-25.5-25.7s11.4-25.7,25.5-25.7
				s25.5,11.5,25.5,25.7S40.4-111.5,26.3-111.5z"/>
		</g>
		
			<g id="Gold_Medal_00000028310814362962051870000008961287425182566078_" transform="translate(560.5364475796711,864.5461332427532)">
			<path id="p_1436.7065869302164" class="st17" d="M42.4-112c-11.6,0-21-9.5-21-21.2c0-11.7,9.4-21.2,21-21.2c0,0,0,0,0,0
				c11.6,0,21,9.5,21,21.2C63.3-121.4,53.9-112,42.4-112C42.4-112,42.4-112,42.4-112z"/>
		</g>
		
			<g id="Gold_Medal_00000100343667494318459110000017241912465999569821_" transform="translate(945.9911795947648,580.6091581683492)">
			<path id="p_1526.600337763114" class="st17" d="M43.8-27.2"/>
		</g>
		
			<g id="Silver_Medal_00000037675656081562166140000017442454681209107361_" transform="translate(945.5805147003475,585.3911776722491)">
			<path id="p_1530.9716923725966" class="st19" d="M43.8-27.6"/>
		</g>
		
			<g id="Gold_Medal_00000011005745662774236970000014928845657671797123_" transform="translate(648.5971848013529,847.4720179535152)">
			<path id="p_1510.305644620411" class="st17" d="M63.6-38.3c-7.3,0-13.3-5.8-13.3-13s5.9-13,13.3-13s13.3,5.8,13.3,13
				S70.9-38.3,63.6-38.3z"/>
		</g>
		
			<g id="Bronze_Medal_00000062905348755728692700000011300064610800576902_" transform="translate(666.4283565607994,872.4137321621575)">
			<path id="p_1550.4660948307492" class="st18" d="M72.2-46.3c-8.3,0-15-6.8-15-15.3s6.7-15.3,15-15.3c0,0,0,0,0,0
				c8.3,0,15,6.8,15,15.3S80.5-46.3,72.2-46.3C72.2-46.3,72.2-46.3,72.2-46.3z"/>
		</g>
		
			<g id="Gold_Medal_00000070094993061142219890000018056840237839759538_" transform="translate(310.68691102557204,215.6872380899889)">
			<path id="p_526.374149115561" class="st17" d="M86.1,5.7"/>
		</g>
		
			<g id="Bronze_Medal_00000183240144620141597490000000394935031088000388_" transform="translate(524.7667139078782,94.15590280330527)">
			<path id="p_633.1590585767264" class="st18" d="M71.9,29.6c-7.3,0-13.3-5.8-13.3-13s5.9-13,13.3-13c7.3,0,13.3,5.8,13.3,13
				S79.2,29.6,71.9,29.6z"/>
		</g>
		
			<g id="Gold_Medal_00000067929456490258997720000004084646505598277530_" transform="translate(552.0221897383684,94.15590280330527)">
			<path id="p_654.3975060850473" class="st17" d="M70,24.1c-4.2,0-7.7-3.3-7.7-7.5s3.4-7.5,7.7-7.5c4.2,0,7.7,3.3,7.7,7.5
				S74.3,24.1,70,24.1z"/>
		</g>
		
			<g id="Silver_Medal_00000134223982531609773510000005343728958975986102_" transform="translate(543.7473084747087,113.71601508918027)">
			<path id="p_665.6827371072626" class="st19" d="M70.6,22.3c-4.2,0-7.7-3.3-7.7-7.5s3.4-7.5,7.7-7.5c4.2,0,7.7,3.3,7.7,7.5
				S74.8,22.3,70.6,22.3z"/>
		</g>
		
			<g id="Gold_Medal_00000114046762268607777980000005817612840057855919_" transform="translate(358.9350713050626,152.80062435198812)">
			<path id="p_511.7356956570507" class="st17" d="M82.9,11.3"/>
		</g>
		
			<g id="Gold_Medal_00000143610115058941868970000017857612397979700883_" transform="translate(193.17096431815116,412.9017556505671)">
			<path id="p_606.0727199687183" class="st17" d="M93.9-12.1"/>
		</g>
		
			<g id="Silver_Medal_00000160903430996791241420000014129001935100926901_" transform="translate(752.0683646501112,138.23161192954518)">
			<path id="p_890.2999765796565" class="st19" d="M56.7,12.6"/>
		</g>
		
			<g id="Gold_Medal_00000105386701555131002820000002165107896441109427_" transform="translate(752.0181001035165,824.7622008512674)">
			<path id="p_1588.404307062576" class="st17" d="M57.5-34.2c-7.7,0-13.9-6.3-13.9-14.1c0-7.8,6.2-14.1,13.9-14.1c0,0,0,0,0,0
				c7.7,0,13.9,6.3,13.9,14.1S65.2-34.2,57.5-34.2C57.5-34.2,57.5-34.2,57.5-34.2z"/>
		</g>
		
			<g id="Bronze_Medal_00000141434707535281862580000008817562340783382190_" transform="translate(780.0657327406744,824.7622008512674)">
			<path id="p_1616.451939699734" class="st18" d="M56.3-37.9c-7.2,0-13-5.7-13-12.8s5.8-12.8,13-12.8c0,0,0,0,0,0
				c7.2,0,13,5.7,13,12.8S63.5-37.9,56.3-37.9C56.3-37.9,56.3-37.9,56.3-37.9z"/>
		</g>
		
			<g id="Silver_Medal_00000000195870260995278540000010046247323955747007_" transform="translate(766.0419164220955,833.3101879967213)">
			<path id="p_1599.352104418817" class="st19" d="M55.8-50"/>
		</g>
		
			<g id="Bronze_Medal_00000159437863896078508370000009090047239032285863_" transform="translate(477.5063937414999,115.5932062138318)">
			<path id="p_593.0995999553317" class="st18" d="M75,14.7"/>
		</g>
		
			<g id="Bronze_Medal_00000169532046455643314330000006300946056756894596_" transform="translate(716.4861548576636,869.539775818439)">
			<path id="p_1597.6499367838949" class="st18" d="M59.5-37.4c-8.1,0-14.7-6.7-14.7-15c0-8.3,6.6-15,14.7-15c0,0,0,0,0,0
				c8.1,0,14.7,6.7,14.7,15S67.6-37.4,59.5-37.4C59.5-37.4,59.5-37.4,59.5-37.4z"/>
		</g>
		
			<g id="Gold_Medal_00000177443004174550138860000014730216472246159752_" transform="translate(741.1291949304031,869.539775818439)">
			<path id="p_1618.888384292216" class="st17" d="M57.3-31.7c-5.5,0-9.9-4.2-9.9-9.4s4.4-9.4,9.9-9.4s9.9,4.2,9.9,9.4
				S62.8-31.7,57.3-31.7z"/>
		</g>
		
			<g id="Gold_Medal_00000046316422713246103210000008234807834562835584_" transform="translate(157.89817932740914,352.4712784239261)">
			<path id="p_510.36945775133523" class="st17" d="M96.3-6.7"/>
		</g>
		
			<g id="Gold_Medal_00000127742098540059851190000010107483042952685446_" transform="translate(501.36663842723584,56.0885382754834)">
			<path id="p_557.4551767027192" class="st17" d="M73.4,20"/>
		</g>
		
			<g id="Gold_Medal_00000163758427433684326270000006636852128373713800_" transform="translate(276.5746431727144,744.9750472546491)">
			<path id="p_1021.5496904273634" class="st17" d="M88.4-42"/>
		</g>
		
			<g id="Silver_Medal_00000067213284770745718140000016734124673693701038_" transform="translate(276.03231642820634,749.7439295024486)">
			<path id="p_1025.776245930655" class="st19" d="M88.4-42.4"/>
		</g>
		
			<g id="Bronze_Medal_00000121259161063576207820000003111636798905662874_" transform="translate(954.3261156446493,319.388197005801)">
			<path id="p_1273.7143126504502" class="st18" d="M43.2-3.7"/>
		</g>
		
			<g id="Silver_Medal_00000026886116592662388810000004594814943918320565_" transform="translate(926.3813981745257,263.34035215515667)">
			<path id="p_1189.7217503296824" class="st19" d="M45.1,1.4"/>
		</g>
		
			<g id="Silver_Medal_00000150814639861241890950000001585378046505051552_" transform="translate(217.40525468573506,706.2013781920203)">
			<path id="p_923.6066328777554" class="st19" d="M92.3-38.5"/>
		</g>
		
			<g id="Bronze_Medal_00000119096174746397899070000013711431014551993022_" transform="translate(848.0594098894004,170.31985800568282)">
			<path id="p_1018.3792678950832" class="st18" d="M50.3,9.8"/>
		</g>
		
			<g id="Silver_Medal_00000180364071574215483860000015385676962192297112_" transform="translate(244.02172558983037,229.30599822844653)">
			<path id="p_473.3277238182769" class="st19" d="M90.6,4.4"/>
		</g>
		
			<g id="Gold_Medal_00000086684534413247907580000014998904086476554401_" transform="translate(645.1367921033138,76.10433300551836)">
			<path id="p_721.2411251088322" class="st17" d="M63.8,18.2"/>
		</g>
		
			<g id="Gold_Medal_00000083782144430925726020000018039417988604108938_" transform="translate(936.5128645413312,703.8073743182941)">
			<path id="p_1640.3202388596253" class="st17" d="M44.4-38.3"/>
		</g>
		
			<g id="Gold_Medal_00000135658331437530529300000013210870277569400464_" transform="translate(586.9663320638081,66.95673185954587)">
			<path id="p_653.923063923354" class="st17" d="M67.7,19.1"/>
		</g>
		
			<g id="Silver_Medal_00000120544037397265509850000008187776774202593975_" transform="translate(226.51937664430926,280.1783328200096)">
			<path id="p_506.69770946431885" class="st19" d="M91.7-0.1"/>
		</g>
		
			<g id="Bronze_Medal_00000041976368368584582670000009694892291034220423_" transform="translate(225.81805905924372,284.9264387409074)">
			<path id="p_510.74449780015107" class="st18" d="M91.8-0.6"/>
		</g>
		
			<g id="Silver_Medal_00000160161227157500733680000009464360895904911776_" transform="translate(866.1096000808105,787.6539233451986)">
			<path id="p_1653.7635234260092" class="st19" d="M49.1-45.9"/>
		</g>
		
			<g id="Bronze_Medal_00000093158122769350688900000005237701869886633149_" transform="translate(865.408282495745,792.4020292660963)">
			<path id="p_1657.8103117618411" class="st18" d="M49.2-46.3"/>
		</g>
		
			<g id="Bronze_Medal_00000175322099189468306600000014139135483020582070_" transform="translate(414.4059645444378,101.61152567957704)">
			<path id="p_516.0174902240149" class="st18" d="M79.2,15.9"/>
		</g>
		
			<g id="Silver_Medal_00000093861304875544680520000006957894359332256168_" transform="translate(824.895689705852,834.2212331810458)">
			<path id="p_1659.1169228868978" class="st19" d="M51.9-50.1"/>
		</g>
		
			<g id="Silver_Medal_00000070801525792060645610000001242764601953035962_" transform="translate(399.31639799783363,877.482437739825)">
			<path id="p_1276.7988357376585" class="st19" d="M80.2-53.9"/>
		</g>
		
			<g id="Silver_Medal_00000109721585646321654620000002139488186390346410_" transform="translate(146.19319307419403,454.35819611233694)">
			<path id="p_600.551389186531" class="st19" d="M97.1-15.8"/>
		</g>
		
			<g id="Silver_Medal_00000087388572270485217510000015078244535124983192_" transform="translate(809.9391352845875,126.3316793217743)">
			<path id="p_936.2708146063618" class="st19" d="M52.9,13.7"/>
		</g>
		
			<g id="Gold_Medal_00000091013586607391669430000006133210641515181186_" transform="translate(146.71809597168522,540.8220066073283)">
			<path id="p_687.5401025790135" class="st17" d="M97-23.6"/>
		</g>
		
			<g id="Gold_Medal_00000029021705599528021420000008937513803981413544_" transform="translate(363.03733010176535,93.05656679117148)">
			<path id="p_456.0938968929368" class="st17" d="M82.6,16.7"/>
		</g>
		
			<g id="Gold_Medal_00000083046887983422658030000002537943971265197485_" transform="translate(986.0995877189009,688.0378298394803)">
			<path id="p_1674.1374175583812" class="st17" d="M41.1-36.9"/>
		</g>
		
			<g id="Gold_Medal_00000098193064692953980730000012809270587355697568_" transform="translate(1005.4924744395272,486.9366939612255)">
			<path id="p_1492.4291684007526" class="st17" d="M39.8-18.8"/>
		</g>
		
			<g id="Silver_Medal_00000137818835657310016530000003141057187493761939_" transform="translate(1004.7911568544616,491.6847998821233)">
			<path id="p_1496.475956736585" class="st19" d="M39.9-19.2"/>
		</g>
		
			<g id="Silver_Medal_00000106142998735733003050000003147141153025975941_" transform="translate(999.376668765219,605.016930234443)">
			<path id="p_1604.3935989996621" class="st19" d="M40.2-29.4"/>
		</g>
		
			<g id="Bronze_Medal_00000127030898487534452940000016554953993121742465_" transform="translate(998.4919504269303,609.7343055272389)">
			<path id="p_1608.2262559541691" class="st18" d="M40.3-29.8"/>
		</g>
		
			<g id="Silver_Medal_00000057144946061153920740000011292888866997989556_" transform="translate(180.3903097081985,618.303508230637)">
			<path id="p_798.6938179388355" class="st19" d="M94.8-30.6"/>
		</g>
		
			<g id="Bronze_Medal_00000070806562412520263950000006800531974662532531_" transform="translate(179.5055913699097,623.020883523433)">
			<path id="p_802.5264748933427" class="st18" d="M94.9-31"/>
		</g>
		
			<g id="Silver_Medal_00000036228846848537773390000006844818464618217354_" transform="translate(1033.968080864046,509.4575442723413)">
			<path id="p_1543.4256251363872" class="st19" d="M37.9-20.8"/>
		</g>
		
			<g id="Bronze_Medal_00000162345945051056012860000001356784461332460706_" transform="translate(1033.0833625257571,514.1749195651373)">
			<path id="p_1547.2582820908945" class="st18" d="M38-21.2"/>
		</g>
		
			<g id="Gold_Medal_00000013182084667266349840000003200146742304106908_" transform="translate(224.47447276685122,745.0621490185689)">
			<path id="p_969.5366217854202" class="st17" d="M91.9-42"/>
		</g>
		
			<g id="Bronze_Medal_00000171689924154843489530000005588465532327193221_" transform="translate(223.58975442856243,749.7795243113649)">
			<path id="p_973.3692787399273" class="st18" d="M91.9-42.4"/>
		</g>
		
			<g id="Gold_Medal_00000021835039898103534050000012754941647986748578_" transform="translate(978.962762893728,267.12845202958954)">
			<path id="p_1246.0912149233177" class="st17" d="M41.6,1"/>
		</g>
		
			<g id="Bronze_Medal_00000076577429999572239010000013951781290338614170_" transform="translate(978.0780445554393,271.8458273223855)">
			<path id="p_1249.9238718778247" class="st18" d="M41.7,0.6"/>
		</g>
		
			<g id="Gold_Medal_00000038410921435269767790000005372599004458771098_" transform="translate(740.1138311460055,83.85688933324775)">
			<path id="p_823.9707204792533" class="st17" d="M57.5,17.5"/>
		</g>
		
			<g id="Bronze_Medal_00000123423139183965077690000007717786171323777410_" transform="translate(739.2291128077168,88.57426462604373)">
			<path id="p_827.8033774337605" class="st18" d="M57.6,17.1"/>
		</g>
		
			<g id="Bronze_Medal_00000152955078262440974500000001774849727205648063_" transform="translate(284.630032144177,789.9190259337001)">
			<path id="p_1074.5490580778771" class="st18" d="M87.9-46.1"/>
		</g>
		
			<g id="Gold_Medal_00000000196971715914810570000008120020569341231235_" transform="translate(308.7787826612179,148.5068515367804)">
			<path id="p_457.2856341979983" class="st17" d="M86.2,11.7"/>
		</g>
		
			<g id="Bronze_Medal_00000065039945382776003400000009277077313148247939_" transform="translate(307.8940643229292,153.2242268295764)">
			<path id="p_461.11829115250555" class="st18" d="M86.3,11.3"/>
		</g>
		
			<g id="Gold_Medal_00000155124205852308715030000008654665695864380832_" transform="translate(997.9106476180934,375.2420085086345)">
			<path id="p_1373.1526561267278" class="st17" d="M40.3-8.7"/>
		</g>
		
			<g id="Bronze_Medal_00000001631586228677061790000007494363479486111641_" transform="translate(997.0259292798047,379.9593838014305)">
			<path id="p_1376.9853130812353" class="st18" d="M40.4-9.1"/>
		</g>
		
			<g id="Gold_Medal_00000080901402200150397130000004930687149683588998_" transform="translate(209.39098666550305,243.49239528771554)">
			<path id="p_452.8833819532186" class="st17" d="M92.9,3.2"/>
		</g>
		
			<g id="Silver_Medal_00000169537425450321066330000017237933735011074463_" transform="translate(208.50626832721426,248.20977058051153)">
			<path id="p_456.71603890772576" class="st19" d="M92.9,2.7"/>
		</g>
		
			<g id="Gold_Medal_00000013877367194216271750000012728649461262050471_" transform="translate(366.18442237105114,872.6773037872699)">
			<path id="p_1238.861726158321" class="st17" d="M82.4-53.5"/>
		</g>
		
			<g id="Silver_Medal_00000152261915151155558670000016954526178221000628_" transform="translate(365.2997040327624,877.3946790800659)">
			<path id="p_1242.6943831128283" class="st19" d="M82.5-53.9"/>
		</g>
		
			<g id="Gold_Medal_00000158723716613436938510000015210728748983606945_" transform="translate(575.196688423898,915.9148232393067)">
			<path id="p_1491.1115116632045" class="st17" d="M68.5-57.4"/>
		</g>
		
			<g id="Silver_Medal_00000042007409902893544880000012834402168304263585_" transform="translate(574.3119700856092,920.6321985321026)">
			<path id="p_1494.944168617712" class="st19" d="M68.6-57.8"/>
		</g>
		
			<g id="Gold_Medal_00000098210256772476449760000010966905509222672518_" transform="translate(285.39167954812063,820.8896981462386)">
			<path id="p_1106.2813776943592" class="st17" d="M87.8-48.8"/>
		</g>
		
			<g id="Silver_Medal_00000039850187973521265170000011170411840830755475_" transform="translate(284.5069612098319,825.6070734390346)">
			<path id="p_1110.1140346488664" class="st19" d="M87.9-49.3"/>
		</g>
		
			<g id="Gold_Medal_00000116941702700714589260000017355588867951235462_" transform="translate(998.8793384120144,339.56689786628806)">
			<path id="p_1338.4462362783024" class="st17" d="M40.3-5.5"/>
		</g>
		
			<g id="Silver_Medal_00000057121918686911884920000014927635569355829951_" transform="translate(997.9946200737256,344.284273159084)">
			<path id="p_1342.2788932328097" class="st19" d="M40.3-5.9"/>
		</g>
		
			<g id="Gold_Medal_00000028314184867614443000000017599344068575044799_" transform="translate(187.6686082919263,296.5351728891343)">
			<path id="p_484.20378118106055" class="st17" d="M94.3-1.6"/>
		</g>
		
			<g id="Silver_Medal_00000060738921048231092880000000988581521958115491_" transform="translate(186.7838899536375,301.25254818193025)">
			<path id="p_488.0364381355678" class="st19" d="M94.4-2"/>
		</g>
		
			<g id="Gold_Medal_00000109009972825898924080000010043779939752188291_" transform="translate(189.39895416737042,665.8750537431384)">
			<path id="p_855.2740079105089" class="st17" d="M94.2-34.9"/>
		</g>
		
			<g id="Silver_Medal_00000165201049940717634170000004404531373250196116_" transform="translate(188.51423582908163,670.5924290359344)">
			<path id="p_859.106664865016" class="st19" d="M94.3-35.3"/>
		</g>
		<text transform="matrix(1.0169 0 0 1 343.5127 377.271)" class="st2 st20">4563</text>
		<text transform="matrix(0.8761 0 0 1 378.2295 423.9731)" class="st2 st21">624</text>
		<text transform="matrix(1.0258 0 0 1 713.6055 205.1826)" class="st2 st9">4533</text>
		<text transform="matrix(1.0258 0 0 1 765.335 217.6143)" class="st2 st9">660</text>
		<text transform="matrix(1.0258 0 0 1 683.583 143.9331)" class="st2 st9">4563</text>
		<text transform="matrix(0.8454 0 0 1 646.04 149.4951)" class="st2 st22">624</text>
		
			<g id="Slovenia_00000135665147689029355590000002779803750700695473_" transform="translate(190.51382810389424,572.5672874822942)">
			<path id="p_793.4713913700696_00000026128238443956199120000015394450785299906971_" class="st1" d="M741.7,47.4
				c-15.7,0-28.4-12.4-28.4-27.7S726-7.9,741.7-7.9c15.7,0,28.4,12.4,28.4,27.7S757.3,47.4,741.7,47.4z"/>
			<text transform="matrix(1.0258 0 0 1 727.3472 -7.8777)" class="st5 st9">Slovenia</text>
		</g>
	</g>
	<g id="labels">
		<g transform="translate(412.74548334773937,457.46884033802456)">
		</g>
		<g transform="translate(519.5431928386556,457.46884033802456)">
			<text transform="matrix(1.304 0 0 1 63.3469 9.1669)" class="st23 st24">487</text>
		</g>
		<g transform="translate(466.78323485953666,545.5624147050354)">
			<text transform="matrix(0.8545 0 0 1 9.1093 -87.7382)" class="st23 st25">4921</text>
		</g>
		<g transform="translate(641.5069899078009,475.1294342388884)">
			<text transform="matrix(1.4919 0 0 1 48.9334 -12.8658)" class="st23 st26">134</text>
		</g>
		<g transform="translate(742.7382360824982,475.1294342388884)">
		</g>
		<g transform="translate(696.3802879555057,546.893963290389)">
			<text transform="matrix(1.1655 0 0 1 92.2964 -78.2617)" class="st23 st27">6025</text>
		</g>
		<g transform="translate(545.930454642514,638.5160788195723)">
		</g>
		<g transform="translate(632.8583232351713,638.5160788195723)">
			<text transform="matrix(0.89 0 0 1 54.0596 -28.5258)" class="st23 st28">3157</text>
		</g>
		<g transform="translate(592.521808763708,708.7316066162815)">
			<text transform="matrix(0.9319 0 0 1 19.4855 -74.9562)" class="st23 st29">372</text>
		</g>
		<g transform="translate(547.4178496773028,289.9554633927848)">
			<text transform="matrix(1.0621 0 0 1 57.8849 0.4635)" class="st23 st30">3079</text>
		</g>
		<g transform="translate(628.4360216498774,289.9554633927848)">
			<text transform="matrix(1.1567 0 0 1 56.1157 0.1451)" class="st2 st31">323</text>
		</g>
		<g transform="translate(373.5438981556132,272.44695864497737)">
			<text transform="matrix(1.1171 0 0 1 67.9312 10.535)" class="st23 st32">248</text>
		</g>
		<g transform="translate(454.94235439377746,272.44695864497737)">
			<text transform="matrix(0.9868 0 0 1 74.5327 8.8343)" class="st23 st26">2950</text>
		</g>
		<g transform="translate(374.46454953244825,674.2821067737482)">
			<text transform="matrix(0.8905 0 0 1 66.0364 -34.9266)" class="st23 st33">1607</text>
		</g>
		<g transform="translate(451.70614699432974,674.2821067737482)">
			<text transform="matrix(1.1192 0 0 1 65.9491 -35.786)" class="st23 st34">175</text>
		</g>
		<g transform="translate(726.0079590690747,300.1393914049009)">
			<text transform="matrix(0.9868 0 0 1 47.3866 15.6028)" class="st23 st26">2950</text>
		</g>
		<g transform="translate(793.5579821548761,300.1393914049009)">
			<text transform="matrix(0.9148 0 0 1 41.6783 42.1262)" class="st23 st35">248</text>
		</g>
		<g transform="translate(725.8719858720577,636.0436312739652)">
			<text transform="matrix(0.9868 0 0 1 46.626 -28.7507)" class="st23 st26">5623</text>
		</g>
		<g transform="translate(763.6052636405065,687.3270098036775)">
			<text transform="matrix(0.9868 0 0 1 75.4377 -70.1483)" class="st23 st26">656</text>
		</g>
		<g transform="translate(266.28971693237327,385.11309581649357)">
		</g>
		<g transform="translate(330.3164504845465,385.11309581649357)">
		</g>
		<g transform="translate(300.45539159554295,436.30495702573165)">
		</g>
		<g transform="translate(333.60623821590735,557.6746738530697)">
			<text transform="matrix(0.9868 0 0 1 76.4411 -21.2977)" class="st23 st26">2168</text>
		</g>
		<g transform="translate(304.4875526893519,606.3480601852519)">
			<text transform="matrix(1.1443 0 0 1 45.9495 -66.2573)" class="st23 st36">166</text>
		</g>
		<g transform="translate(818.2447327470403,405.95711345897456)">
			<text transform="matrix(0.9868 0 0 1 40.3744 5.4159)" class="st23 st26">5828</text>
		</g>
		<g transform="translate(872.0515880473129,405.95711345897456)">
			<text transform="matrix(0.9868 0 0 1 43.4338 15.1732)" class="st23 st26">718</text>
		</g>
		<g transform="translate(812.9269139727828,539.06069572928)">
			<text transform="matrix(1.3312 0 0 1 48.5916 -5.9191)" class="st23 st26">602</text>
		</g>
		<g transform="translate(861.2195827114822,539.06069572928)">
			<text transform="matrix(1.2056 0 0 1 45.2677 -5.5363)" class="st23 st26">5651</text>
		</g>
		<g transform="translate(837.0732483421325,579.0098076107319)">
			<text transform="matrix(0.9868 0 0 1 55.3447 -16.9239)" class="st23 st26">6</text>
		</g>
		<g transform="translate(490.7716265006204,180.2075117109268)">
			<text transform="matrix(1.0202 0 0 1 64.8304 9.8032)" class="st23 st37">4921</text>
		</g>
		<g transform="translate(541.6966839162769,180.2075117109268)">
			<text transform="matrix(1.2133 0 0 1 64.4982 15.9448)" class="st23 st38">487</text>
		</g>
		<g transform="translate(687.5028359943184,230.78503852844847)">
		</g>
		<g transform="translate(674.191142056999,765.7226063003818)">
			<text transform="matrix(0.9868 0 0 1 49.7385 -41.9726)" class="st23 st26">2795</text>
		</g>
		<g transform="translate(706.7220650598781,791.4775724753767)">
			<text transform="matrix(0.9868 0 0 1 70.0612 -78.001)" class="st23 st26">268</text>
		</g>
		<g transform="translate(238.30102239278207,488.1970447847391)">
			<text transform="matrix(1.3113 0 0 1 81.9812 -17.6458)" class="st23 st39">1099</text>
		</g>
		<g transform="translate(216.84328738097648,520.9660845713756)">
			<text transform="matrix(1.1896 0 0 1 61.083 -55.2175)" class="st23 st40">130</text>
		</g>
		<g transform="translate(584.3498646361523,796.1936363890569)">
			<text transform="matrix(0.9868 0 0 1 57.9392 -42.6478)" class="st23 st26">4195</text>
		</g>
		<g transform="translate(625.431731795639,796.1936363890569)">
			<text transform="matrix(0.965 0 0 1 59.1855 -46.8323)" class="st23 st41">444</text>
		</g>
		<g transform="translate(615.8573167198225,822.5564942103352)">
		</g>
		<g transform="translate(258.69738518703446,276.99002759655366)">
			<text transform="matrix(0.9868 0 0 1 93.8729 -0.5887)" class="st23 st26">4</text>
		</g>
		<g transform="translate(296.37465978210275,276.99002759655366)">
			<text transform="matrix(0.9868 0 0 1 91.3631 -0.5887)" class="st23 st26">4</text>
		</g>
		<g transform="translate(277.5360224845686,307.04952727402394)">
			<text transform="matrix(0.9868 0 0 1 92.6178 -2.2141)" class="st23 st26">3</text>
		</g>
		<g transform="translate(763.3266118221519,195.96688157592263)">
			<text transform="matrix(0.9868 0 0 1 60.2564 3.7953)" class="st23 st26">4</text>
		</g>
		<g transform="translate(801.0038864172201,195.96688157592263)">
			<text transform="matrix(0.9868 0 0 1 57.7461 3.7953)" class="st23 st26">4</text>
		</g>
		<g transform="translate(782.165249119686,222.8935709833329)">
			<text transform="matrix(0.9868 0 0 1 59.0008 2.3384)" class="st23 st26">2</text>
		</g>
		<g transform="translate(778.1041253153307,756.0682055680172)">
			<text transform="matrix(0.9892 0 0 1 80.5404 -41.4666)" class="st23 st42">3745</text>
		</g>
		<g transform="translate(815.7813999103989,756.0682055680172)">
			<text transform="matrix(0.9868 0 0 1 8.2225 -38.7752)" class="st23 st26">553</text>
		</g>
		<g transform="translate(424.7812491023369,800.0049744107923)">
			<text transform="matrix(0.8406 0 0 1 32.8037 -41.4943)" class="st23 st43">3590</text>
		</g>
		<g transform="translate(408.506286578173,809.8790446068178)">
			<text transform="matrix(1.1486 0 0 1 87.8658 -53.2521)" class="st23 st44">361</text>
		</g>
		<g transform="translate(408.00942746422294,152.09949931447014)">
			<text transform="matrix(1.1596 0 0 1 68.2523 15.1275)" class="st23 st45">3756</text>
		</g>
		<g transform="translate(440.87188108033604,152.09949931447014)">
		</g>
		<g transform="translate(428.9027550719961,177.46502156703662)">
			<text transform="matrix(1.3469 0 0 1 83.9889 -6.6823)" class="st23 st46">449</text>
		</g>
		<g transform="translate(525.7336536321394,864.5461332427532)">
			<text transform="matrix(1.3775 0 0 1 16.2776 -133.6624)" class="st23 st47">3193</text>
		</g>
		<g transform="translate(560.5364475796711,864.5461332427532)">
		</g>
		<g transform="translate(648.5971848013529,847.4720179535152)">
			<text transform="matrix(1.0574 0 0 1 82.9614 -33.2582)" class="st23 st48">3052</text>
		</g>
		<g transform="translate(666.4283565607994,872.4137321621575)">
			<text transform="matrix(1.1918 0 0 1 40.5316 -74.0378)" class="st23 st49">387</text>
		</g>
		<g transform="translate(524.7667139078782,94.15590280330527)">
			<text transform="matrix(0.9868 0 0 1 76.1478 9.3016)" class="st23 st26">3</text>
		</g>
		<g transform="translate(552.0221897383684,94.15590280330527)">
			<text transform="matrix(0.9868 0 0 1 74.3323 9.3016)" class="st23 st26">1</text>
		</g>
		<g transform="translate(543.7473084747087,113.71601508918027)">
			<text transform="matrix(0.9868 0 0 1 74.884 8.2435)" class="st23 st26">1</text>
		</g>
		<g transform="translate(766.0419164220955,833.3101879967213)">
			<text transform="matrix(1.3569 0 0 1 64.1524 -57.5192)" class="st23 st50">3733</text>
		</g>
		<g transform="translate(716.4861548576636,869.539775818439)">
			<text transform="matrix(1.3096 0 0 1 51.4074 -49.8562)" class="st23 st51">3590</text>
		</g>
		<g transform="translate(741.1291949304031,869.539775818439)">
		</g>
		<g transform="translate(731.9770844109163,888.7051228177188)">
			<text transform="matrix(1.0635 0 0 1 61.2016 -59.4532)" class="st23 st52">361</text>
		</g>
		<g transform="translate(922.1574991940795,695.828715651387)">
		</g>
		<g transform="translate(946.8005392668189,695.828715651387)">
		</g>
		<g transform="translate(936.5128645413312,703.8073743182941)">
		</g>
		<g transform="translate(814.2764659516915,826.6894782567585)">
		</g>
		<g transform="translate(835.5149134600124,826.6894782567585)">
		</g>
		<g transform="translate(824.895689705852,834.2212331810458)">
		</g>
		<g transform="translate(975.4803639647405,680.506074915193)">
		</g>
		<g transform="translate(996.7188114730614,680.506074915193)">
		</g>
		<g transform="translate(986.0995877189009,688.0378298394803)">
		</g>
		<g transform="translate(647.4173515985042,907.5803647885197)">
		</g>
		<g transform="translate(660.4363855634515,907.5803647885197)">
		</g>
		<g transform="translate(659.5516672251628,912.2977400813156)">
		</g>
		<g transform="translate(562.1776544589507,915.9148232393067)">
		</g>
		<g transform="translate(575.196688423898,915.9148232393067)">
		</g>
		<g transform="translate(574.3119700856092,920.6321985321026)">
		</g>
	</g>
	<text transform="matrix(0.8548 0 0 1 594.9604 733.5938)" class="st2 st53">506</text>
</g>
<g id="legend" transform="translate(1200,20)">
	<g transform="translate(5,0)">
		<g transform="translate(0,0)">
			<g transform="translate(50,15.5)">
				<g transform="translate(0, 25)">
					<circle class="st1" cx="0" cy="0" r="25"/>
					<text transform="matrix(1 0 0 1 55 5)" class="st5 st54">9.3</text>
				</g>
				<g transform="translate(0, 125)">
					<circle class="st1" cx="0" cy="0" r="50"/>
					<text transform="matrix(1 0 0 1 55 5)" class="st5 st54">37.0</text>
				</g>
			</g>
			<text class="st23 st55">Count [sum]</text>
		</g>
		<g transform="translate(0,223)">
			<g transform="translate(0,15.5)">
				<g transform="translate(0, 0)">
					<rect x="0" class="st18" width="13.8" height="15"/>
					<text transform="matrix(0.9172 0 0 1 18.3438 12.5)" class="st5 st54">Total Arrests By Precinct</text>
				</g>
				<g transform="translate(0, 20.5)">
					<rect x="0" class="st17" width="13.8" height="15"/>
					<text transform="matrix(0.9172 0 0 1 18.3438 12.5)" class="st5 st54">Total Arrests By Crime (Assualt 3) </text>
				</g>
				<g transform="translate(0, 41)">
					<rect x="0" class="st19" width="13.8" height="15"/>
					<text transform="matrix(0.9172 0 0 1 18.3438 12.5)" class="st5 st54">Silver Medal</text>
				</g>
			</g>
			<text transform="matrix(0.9172 0 0 1 0 0)" class="st23 st55">NYPD Top 20 Precints Arrests Rates </text>
		</g>
	</g>
</g>
<text transform="matrix(1.186 0 0 1 857.58 832.949)" class="st2 st56">358</text>
</svg>
